<!--?xml version="1.0" encoding="utf-8"?-->
<!-- Generator: Adobe Illustrator 18.1.1, SVG Export Plug-In . SVG Version: 6.00 Build 0)  -->

<svg version="1.1" id="_x32_" xmlns="http://www.w3.org/2000/svg" xmlns:xlink="http://www.w3.org/1999/xlink" x="0px" y="0px" viewBox="0 0 512 512" style="width: 256px; height: 256px; opacity: 1;" xml:space="preserve">
<style type="text/css">
	.st0{fill:#4B4B4B;}
</style>
<g>
	<path class="st0" d="M174.518,330.377c19.408-43.602,1.624-93.871-39.71-112.282c-5.175-2.307-10.483-3.998-15.838-5.118
		c-2.27-6.03-4.947-12.429-8.147-19.01c-7.444-15.296-17.604-31.477-31.467-45.54c-13.644-13.844-30.992-25.59-52.557-32.046
		c-2.288-1.557-4.928-2.649-7.881-2.953c-9.428-0.968-17.86,5.888-18.829,15.316c-0.96,9.438,5.896,17.852,15.325,18.829
		c8.394,0.864,15.981-4.51,18.212-12.362c13.682,5.868,25.143,14.243,34.791,24.004c15.525,15.715,26.226,35.019,33.385,52.177
		c-31.809,0.466-62.603,19.998-76.997,52.32c-19.408,43.602-1.624,93.861,39.708,112.272
		C105.848,394.384,155.101,373.969,174.518,330.377z" style="fill: rgb(48, 48, 48);"></path>
	<path class="st0" d="M391.277,455.287c5.213-20.216,1.566-43.82-8.004-66.856c-4.786,17.784-11.5,35.76-20.701,53.525
		c-11.716,22.646-27.412,44.846-47.305,65.803c23.644-1.975,44.922-9.458,59.346-23.463l37.782,7.919
		c1.814,0.389,3.684-0.428,4.633-2.032c0.95-1.596,0.779-3.618-0.427-5.042L391.277,455.287z" style="fill: rgb(48, 48, 48);"></path>
	<path class="st0" d="M239.836,289.025c-15.686-12.382-31.202-21.497-46.888-25.77c7.217,23.074,6.391,49.12-4.396,73.37
		c-1.434,3.22-3.048,6.324-4.766,9.334c-0.589,0.921-1.121,1.842-1.691,2.762c-13.113,21.508-33.148,37.346-56.184,44.724
		c7.245,5.916,22.067,15.239,36.51,23.7c0,0.009,0,0.018,0,0.018C204.448,377.113,229.107,331.877,239.836,289.025z" style="fill: rgb(48, 48, 48);"></path>
	<path class="st0" d="M366.419,357.059c-9.097-13.722-19.94-26.445-31.762-37.108c-4.51,24.697-12.8,50.087-25.724,75.05
		c-17.823,34.459-44.552,67.958-81.678,97.441c17.328,7.625,36.508,12.752,55.594,14.842c26.236-23.796,45.635-49.632,59.261-75.924
		C354.967,406.529,362.677,381.309,366.419,357.059z" style="fill: rgb(48, 48, 48);"></path>
	<path class="st0" d="M284.379,382.288c14.024-27.081,21.943-54.655,25.143-80.852c-16.218-9.344-31.582-13.114-46.033-12.41
		c-11.756,52.015-41.922,106.604-94.25,153.092c5.906,12.486,15.677,24.27,30.28,34.79c0.428,0.304,0.902,0.57,1.339,0.884
		C239.95,448.945,266.917,415.996,284.379,382.288z" style="fill: rgb(48, 48, 48);"></path>
	<path class="st0" d="M499.258,137.736c-8.527-11.67-21.279-21.051-37.639-26.956c-13.294-4.843-26.502-7.065-39.33-7.065
		c-24.193,0.076-47.162,7.672-68.366,19.504c0.845-6.837,1.235-13.436,1.235-19.893c0-28.268-7.141-52.69-20.358-70.512
		c-6.533-8.831-14.67-16.057-24.033-20.965c-9.381-4.919-19.978-7.606-31.344-7.606c-9.448,0-19.437,1.842-29.721,5.612
		c-18.971,6.98-34.335,17.974-46.469,31.562c-18.212,20.434-29.199,46.47-35.722,73.817c-6.523,27.261-8.602,56.07-8.602,82.495
		c0,5.868,0.132,11.555,0.313,17.138c6.02,4.568,11.404,9.808,16.085,15.572c-0.608-10.255-1.036-21.232-1.036-32.711
		c-0.076-34.108,3.684-71.975,15.744-103.85c5.991-15.896,14.053-30.347,24.649-42.168c10.683-11.907,23.815-21.355,40.327-27.422
		c8.764-3.219,16.978-4.682,24.432-4.682c8.992,0,16.978,2.07,24.194,5.83c10.758,5.612,19.664,15.364,26.111,28.657
		c6.382,13.208,10.066,30.034,10.066,49.233c0,9.676-0.922,19.893-2.915,30.641c-25.353,17.519-47.705,40.327-66.438,62.461
		c-20.605,24.611-36.595,48.35-46.404,63.39c4.292,2.402,8.631,5.108,13.056,8.128c13.217-20.301,37.496-56.022,68.603-87.347
		c7.986-8.138,16.503-15.904,25.344-23.121l19.588-14.205c3.295-2.232,6.609-4.235,9.98-6.153
		c19.741-11.215,40.488-18.041,61.681-18.041c11.139,0.066,22.428,1.918,34.022,6.133c14.063,5.071,23.966,12.6,30.499,21.592
		c6.533,8.983,9.751,19.513,9.827,31.335c0,14.282-4.909,30.423-15.05,46.546c-21.554,34.487-66.923,68.66-134.71,85.6
		c4.32,4.007,8.488,8.252,12.487,12.676c33.84-9.4,62.364-23.026,85.201-39.054c21.886-15.363,38.626-32.948,50.002-51.085
		c11.366-18.117,17.358-36.87,17.434-54.683C512,163.468,507.774,149.491,499.258,137.736z" style="fill: rgb(48, 48, 48);"></path>
</g>
</svg>
