<?xml version="1.0" encoding="utf-8"?>
<!-- Generator: Adobe Illustrator 27.8.1, SVG Export Plug-In . SVG Version: 6.00 Build 0)  -->
<svg version="1.1" id="_x32_" xmlns="http://www.w3.org/2000/svg" xmlns:xlink="http://www.w3.org/1999/xlink" x="0px" y="0px"
	 viewBox="0 0 512 512" style="enable-background:new 0 0 512 512;" xml:space="preserve">
<style type="text/css">
	.st0{fill:#FFFFFF;}
</style>
<g>
	<path class="st0" d="M491.6,95.7C486.6,89.6,479,86,471,86H123.7l-11.8-40.6l0,0c-5.4-18.2-20.3-31.9-38.9-35.9L30.5,0.3
		c-7.2-1.5-14.3,3-15.8,10.2c-1.5,7.2,3,14.3,10.2,15.8l42.4,9.1c9.1,1.9,16.3,8.7,19,17.5l77.6,266.5c-1.7,0.8-3.4,1.7-5.1,2.7
		c-8.4,5-15.1,12-19.6,20.1c-4.3,7.8-6.6,16.6-6.8,25.6h0v1.4h0c0.2,7.1,1.7,13.9,4.3,20.1c4.2,9.9,11.2,18.3,20,24.3
		c8.8,5.9,19.5,9.4,30.9,9.4h249.6c7.4,0,13.3-6,13.3-13.3c0-7.4-6-13.3-13.3-13.3H187.6c-4,0-7.7-0.8-11.1-2.2
		c-5.1-2.2-9.5-5.8-12.6-10.4c-3-4.4-4.7-9.6-4.8-15.2c0.2-6.8,2.3-12.6,6.1-17.3c2-2.4,4.4-4.6,7.3-6.3c2.9-1.7,6.3-3.1,10.3-4
		l250.9-40.8c16.4-2.7,29.4-15.2,32.7-31.5l30.7-150.8v0c0.4-1.7,0.5-3.5,0.5-5.3C497.6,106.5,495.5,100.5,491.6,95.7z"/>
	<path class="st0" d="M218.4,444.8c-5.8-4-13-6.3-20.5-6.3c-5,0-9.9,1-14.3,2.9c-6.6,2.8-12.2,7.4-16.1,13.3c-4,5.8-6.3,13-6.3,20.5
		c0,5,1,9.9,2.9,14.3c2.8,6.6,7.4,12.2,13.3,16.2c5.8,4,13,6.3,20.6,6.3c5,0,9.9-1,14.3-2.9c6.6-2.8,12.2-7.4,16.2-13.3
		c4-5.9,6.3-13,6.3-20.6c0-5-1-9.9-2.9-14.3C228.9,454.3,224.3,448.8,218.4,444.8z M211.5,481c-1.1,2.6-3,4.9-5.4,6.5
		c-2.4,1.6-5.2,2.5-8.3,2.5c-2.1,0-4-0.4-5.8-1.2c-2.6-1.1-4.9-3-6.5-5.4c-1.6-2.4-2.5-5.2-2.5-8.3c0-2.1,0.4-4,1.2-5.8
		c1.1-2.6,3-4.9,5.4-6.5c2.4-1.6,5.2-2.5,8.3-2.5c2.1,0,4,0.4,5.8,1.2c2.6,1.1,4.9,3,6.5,5.4c1.6,2.4,2.5,5.2,2.5,8.3
		C212.7,477.3,212.3,479.2,211.5,481z"/>
	<path class="st0" d="M419.9,444.8c-5.8-4-13-6.3-20.5-6.3c-5,0-9.9,1-14.3,2.9c-6.6,2.8-12.2,7.4-16.2,13.3c-4,5.8-6.3,13-6.3,20.5
		c0,5,1,9.9,2.9,14.3c2.8,6.6,7.4,12.2,13.3,16.2c5.9,4,13,6.3,20.6,6.3c5,0,9.9-1,14.3-2.9c6.6-2.8,12.2-7.4,16.2-13.3
		c4-5.9,6.3-13,6.3-20.6c0-5-1-9.9-2.9-14.3C430.4,454.3,425.8,448.8,419.9,444.8z M413,481c-1.1,2.6-3,4.9-5.4,6.5
		c-2.4,1.6-5.2,2.5-8.3,2.5c-2.1,0-4-0.4-5.8-1.2c-2.6-1.1-4.9-3-6.5-5.4c-1.6-2.4-2.5-5.2-2.5-8.3c0-2.1,0.4-4,1.2-5.8
		c1.1-2.6,3-4.9,5.4-6.5c2.4-1.6,5.2-2.5,8.3-2.5c2.1,0,4,0.4,5.8,1.2c2.6,1.1,4.9,3,6.5,5.4c1.6,2.4,2.5,5.2,2.5,8.3
		C414.2,477.3,413.8,479.2,413,481z"/>
</g>
</svg>
