<?xml version="1.0" encoding="utf-8"?>
<!-- Generator: Adobe Illustrator 27.8.1, SVG Export Plug-In . SVG Version: 6.00 Build 0)  -->
<svg version="1.1" xmlns="http://www.w3.org/2000/svg" xmlns:xlink="http://www.w3.org/1999/xlink" x="0px" y="0px"
	 viewBox="0 0 256 256" style="enable-background:new 0 0 256 256;" xml:space="preserve">
<style type="text/css">
	.st0{fill:#F6B940;}
	.st1{fill:#040000;}
</style>
<g id="レイヤー_3">
</g>
<g id="レイヤー_2">
	<g>
		<polygon class="st0" points="1.5,206.2 1.5,110.6 84.3,62.7 167.2,110.6 167.2,206.2 84.3,254 		"/>
		<path class="st1" d="M84.3,64.5l81.3,47v93.9l-81.3,47L3,205.3v-93.9L84.3,64.5 M84.3,61L0,109.7v97.4l84.3,48.7l84.3-48.7v-97.4
			L84.3,61L84.3,61z"/>
	</g>
	<g>
		<path d="M56.3,169.1c0,2.2,0.1,3.6,0.3,5.2h-6c0.2-1.7,0.3-3,0.3-5.2v-21.8h-5.4c-2.4,0-4.1,0.1-5.5,0.3v-5.4
			c1.4,0.2,3.2,0.3,5.4,0.3h15.8c2.9,0,4.4-0.1,5.9-0.3v5.4c-1.5-0.2-3-0.3-5.9-0.3h-5V169.1z"/>
		<path d="M95,145.8c2.9,2.9,4.5,7.3,4.5,12.5c0,10.1-5.9,16.7-15,16.7s-14.9-6.5-14.9-16.7c0-5.2,1.6-9.6,4.6-12.5
			c2.8-2.7,6.1-4,10.3-4C88.9,141.8,92.3,143.1,95,145.8z M93.9,158.3c0-4-1.1-7.3-3.2-9.3c-1.6-1.6-3.8-2.4-6.2-2.4
			c-5.8,0-9.4,4.6-9.4,11.8c0,4,1.2,7.4,3.2,9.4c1.6,1.6,3.8,2.4,6.2,2.4C90.3,170.2,93.9,165.6,93.9,158.3z"/>
		<path d="M104.2,174.3c0.2-1.6,0.3-3,0.3-5.2v-21.6c0-1.9-0.1-3.4-0.3-5.2c1.7,0.1,3,0.1,5.1,0.1h8.4c3.9,0,6.6,0.9,8.5,2.8
			c1.6,1.6,2.5,4,2.5,6.9c0,3-0.9,5.5-2.7,7.4c-2,2-4.7,2.9-8.5,2.9h-7.6v6.7c0,2.2,0.1,3.7,0.3,5.2H104.2z M117.4,157.8
			c3.7,0,5.7-2,5.7-5.5c0-1.6-0.4-2.9-1.3-3.8c-0.9-1-2.2-1.4-4.4-1.4h-7.6v10.8H117.4z"/>
	</g>
</g>
<g id="レイヤー_1">
</g>
</svg>
